<svg width="10" height="10" viewBox="0 0 10 10" fill="none" xmlns="http://www.w3.org/2000/svg">
    <g id="&#229;&#164;&#141;&#229;&#136;&#182; (4) 3" clip-path="url(#clip0_17_250)">
        <path id="Vector"
            d="M8.66418 1.77305H8.10065V1.20567C8.10065 0.567376 7.60757 0 6.90317 0H1.19749C0.493083 0 0 0.496454 0 1.20567V7.02128C0 7.65957 0.493083 8.22695 1.19749 8.22695H1.76101V8.79433C1.76101 9.43262 2.25409 10 2.9585 10H8.73462C9.36858 10 9.93211 9.50355 9.93211 8.79433V2.97872C9.86166 2.2695 9.36858 1.77305 8.66418 1.77305ZM1.76101 2.97872V7.51773H1.19749C0.915726 7.51773 0.633964 7.30496 0.633964 6.95035V1.20567C0.633964 0.921986 0.845286 0.638298 1.19749 0.638298H6.97361C7.25537 0.638298 7.53713 0.851064 7.53713 1.20567V1.77305H2.9585C2.25409 1.77305 1.76101 2.2695 1.76101 2.97872ZM9.2277 8.7234C9.2277 9.00709 9.01638 9.29078 8.66418 9.29078H2.9585C2.67674 9.29078 2.39498 9.07801 2.39498 8.7234V2.97872C2.39498 2.69504 2.6063 2.41135 2.9585 2.41135H8.73462C9.01638 2.41135 9.29814 2.62411 9.29814 2.97872V8.7234H9.2277Z"
            fill="#000" />
        <path id="Vector_2"
            d="M7.25537 5.74467H6.12832V4.60992C6.12832 4.46808 5.98744 4.25531 5.77612 4.25531C5.5648 4.25531 5.49436 4.46808 5.49436 4.60992V5.74467H4.36731C4.22643 5.74467 4.01511 5.88652 4.01511 6.09928C4.01511 6.31205 4.15599 6.38297 4.36731 6.38297H5.49436V7.51772C5.49436 7.65957 5.63524 7.87233 5.84656 7.87233C6.05788 7.87233 6.19876 7.73049 6.19876 7.51772V6.38297H7.32581C7.46669 6.38297 7.67801 6.24113 7.67801 6.02836C7.67801 5.81559 7.46669 5.74467 7.25537 5.74467Z"
            fill="#000" />
    </g>
    <defs>
        <clipPath id="clip0_17_250">
            <rect width="10" height="10" fill="#000" />
        </clipPath>
    </defs>
</svg>