<svg width="24" height="24" viewBox="0 0 24 24" fill="none" xmlns="http://www.w3.org/2000/svg">
<g id="&#229;&#136;&#135;&#230;&#141;&#162;&#232;&#175;&#173;&#232;&#168;&#128; 1">
<path id="Vector" d="M19.8291 20.3149C19.4287 20.3625 19.0657 20.0763 19.0184 19.676C19.0132 19.6315 19.012 19.5867 19.0148 19.5422V16.6594C19.0148 15.8688 18.4952 15.8688 18.2993 15.8688C17.8005 15.8581 17.3873 16.2539 17.3768 16.7529C17.3766 16.7637 17.3766 16.7745 17.3768 16.785V19.5427C17.359 19.9856 16.9852 20.3304 16.5422 20.3123C16.1243 20.2955 15.7894 19.9606 15.7725 19.5427V15.18C15.7437 14.7762 16.0477 14.4256 16.4515 14.397C16.4911 14.3941 16.5309 14.3946 16.5705 14.3981C16.7206 14.3857 16.8709 14.4187 17.0019 14.493C17.1329 14.5672 17.2385 14.6792 17.3048 14.8144C17.6766 14.5368 18.1298 14.3904 18.5937 14.3981C19.8619 14.3981 20.6198 15.1854 20.6198 16.5082V19.5422C20.6245 19.6441 20.6084 19.7459 20.5726 19.8414C20.5369 19.937 20.4821 20.0243 20.4117 20.0981C20.3343 20.1717 20.243 20.2289 20.143 20.2665C20.0431 20.304 19.9367 20.3211 19.83 20.3168L19.8291 20.3149ZM14.3653 20.1401H11.2083C10.2059 20.1401 9.75867 19.6957 9.75867 18.697V14.2516C9.75867 13.2551 10.2061 12.8086 11.2083 12.8086H14.2256C14.6456 12.8086 14.9862 13.1491 14.9862 13.5691C14.9862 13.9891 14.6456 14.3297 14.2256 14.3297H11.5015C11.4729 14.3278 11.4441 14.3318 11.4171 14.3414C11.4201 14.3414 11.4136 14.3602 11.4136 14.4091V15.6415H13.898C14.2807 15.6026 14.6224 15.8815 14.6613 16.2642C14.6653 16.3036 14.666 16.3432 14.6632 16.3828C14.6862 16.7733 14.3883 17.1087 13.9976 17.1316C13.9645 17.1335 13.9312 17.1333 13.8982 17.1305H11.4117V18.5391C11.4108 18.5639 11.4136 18.589 11.4199 18.6129C11.4462 18.6164 11.4726 18.6183 11.4991 18.6185H14.3658C14.7633 18.5934 15.1059 18.8953 15.131 19.2926C15.1327 19.3198 15.1329 19.3472 15.1315 19.3746C15.1631 19.7656 14.872 20.1082 14.4811 20.1398C14.4426 20.1429 14.4042 20.1429 14.3658 20.1398H14.3653V20.1401ZM7.67671 11.3168C7.26984 11.3721 6.89531 11.0871 6.83999 10.6802C6.83296 10.6284 6.83132 10.5762 6.83531 10.5239V8.6836H4.83679C3.76195 8.6836 3.28265 8.20266 3.28265 7.12946V4.92938C3.28265 3.8611 3.76359 3.38485 4.83679 3.38485H6.83531V2.64586C6.80296 2.24485 7.10179 1.89329 7.50281 1.86094C7.54781 1.85743 7.59281 1.8579 7.63781 1.86258C8.34702 1.86258 8.49632 2.28844 8.49632 2.64586V3.38625H10.5141C11.5889 3.38625 12.0687 3.86297 12.0687 4.93032V7.13086C12.0687 8.20571 11.5877 8.68454 10.5141 8.68454H8.49726V10.5248C8.52656 10.9343 8.21835 11.2901 7.8089 11.3196C7.76484 11.3227 7.72077 11.322 7.67695 11.3173V11.3168H7.67671ZM5.09085 4.95165C4.93921 4.95165 4.92515 4.96571 4.92515 5.11735V6.95016C4.92515 7.10321 4.93921 7.11774 5.09085 7.11774H6.83531V4.95165H5.09085ZM8.49749 7.1168H10.2621C10.4095 7.1168 10.4283 7.09805 10.4283 6.9511V5.11711C10.4283 4.96969 10.4095 4.95094 10.2621 4.95094H8.49703V7.11704H8.49749V7.1168ZM12.0464 22.4897C6.24445 22.4723 1.55531 17.7551 1.57265 11.9531C1.57499 11.1328 1.67367 10.3158 1.86609 9.51844C1.97882 9.07313 2.42671 8.79938 2.8746 8.90227C3.32226 9.01032 3.59788 9.46032 3.49077 9.90797C2.34398 14.6501 5.25843 19.4238 10.0005 20.5706C10.6705 20.7327 11.3571 20.8157 12.0464 20.8181C12.5079 20.8186 12.8817 21.1929 12.8815 21.6546C12.881 22.1156 12.5074 22.4892 12.0464 22.4897ZM21.386 15.2229C20.9245 15.2229 20.5502 14.8488 20.5502 14.3873C20.5502 14.3182 20.5589 14.2491 20.5758 14.182C21.7784 9.45188 18.9187 4.6425 14.1886 3.43993C13.488 3.2618 12.7685 3.1704 12.0457 3.16758C11.5844 3.16758 11.2104 2.79375 11.2104 2.3325C11.2104 1.87125 11.5842 1.49719 12.0455 1.49719H12.0457C17.8481 1.515 22.5375 6.23344 22.5197 12.0359C22.5171 12.8984 22.4081 13.7571 22.1955 14.5929C22.1018 14.9632 21.7683 15.2229 21.386 15.2229Z" fill="white"/>
</g>
</svg>
