<svg width="24" height="24" viewBox="0 0 24 24" fill="none" xmlns="http://www.w3.org/2000/svg">
<g id="&#233;&#146;&#177;&#229;&#140;&#133; (5) 1">
<path id="Vector" d="M18.8344 5.19608C18.8203 5.14452 18.8203 5.09296 18.7969 5.0414L18.3164 4.01015C17.8266 2.96249 16.957 2.16561 15.8625 1.76718C14.7703 1.37108 13.5914 1.4203 12.5414 1.9078L6.72656 4.62186C6.50625 4.72499 6.35156 4.9078 6.27656 5.11874H5.91797C3.52265 5.11874 1.57265 7.06874 1.57265 9.46405V18.1523C1.57265 20.5476 3.52265 22.4976 5.91797 22.4976H18.082C20.4773 22.4976 22.4273 20.5476 22.4273 18.1523V9.46171C22.425 7.32655 20.8711 5.55468 18.8344 5.19608ZM13.2773 3.48515C13.9055 3.19218 14.6109 3.16405 15.2695 3.40311C15.9258 3.64218 16.4484 4.1203 16.7414 4.74608L16.9148 5.11874H9.77344L13.2773 3.48515ZM20.6883 16.4156H16.9383C15.5016 16.4156 14.332 15.2461 14.332 13.8094C14.332 12.3726 15.5016 11.2031 16.9383 11.2031H20.6883V16.4156ZM16.9383 9.46405C14.543 9.46405 12.593 11.4141 12.593 13.8094C12.593 16.2047 14.543 18.1547 16.9383 18.1547H20.6883C20.6883 19.5914 19.5188 20.7609 18.082 20.7609H5.91797C4.48125 20.7609 3.31172 19.5914 3.31172 18.1547V9.46405C3.31172 8.02733 4.48125 6.8578 5.91797 6.8578H18.082C19.5188 6.8578 20.6883 8.02733 20.6883 9.46405H16.9383Z" fill="white"/>
<path id="Vector_2" d="M15.4031 13.8094C15.4031 14.27 15.5861 14.7117 15.9118 15.0374C16.2375 15.3631 16.6792 15.5461 17.1398 15.5461C17.6004 15.5461 18.0422 15.3631 18.3679 15.0374C18.6936 14.7117 18.8766 14.27 18.8766 13.8094C18.8766 13.3488 18.6936 12.907 18.3679 12.5813C18.0422 12.2556 17.6004 12.0727 17.1398 12.0727C16.6792 12.0727 16.2375 12.2556 15.9118 12.5813C15.5861 12.907 15.4031 13.3488 15.4031 13.8094Z" fill="white"/>
</g>
</svg>
