<svg width="16" height="16" viewBox="0 0 16 16" fill="none" xmlns="http://www.w3.org/2000/svg">
<g id="&#229;&#133;&#179;&#233;&#151;&#173;4 1">
<path id="Vector" d="M8.00002 9.38504C9.38488 10.7701 10.77 12.155 12.1549 13.5401C12.5374 13.9224 13.1575 13.9224 13.54 13.5401C13.9225 13.1576 13.9225 12.5375 13.54 12.155C12.1549 10.7702 10.77 9.38507 9.38488 8.00021L13.54 3.84509C13.9225 3.46285 13.9225 2.84275 13.54 2.46023C13.1575 2.07771 12.5374 2.07771 12.1549 2.46023L8.00002 6.61507C6.61488 5.23021 5.22999 3.84509 3.84513 2.46023C3.46261 2.07771 2.84248 2.07771 2.45999 2.46023C2.07747 2.84275 2.07747 3.46285 2.45999 3.84509C3.84513 5.23021 5.22999 6.61507 6.61488 8.00021C5.22999 9.38507 3.84513 10.7702 2.45999 12.155C2.07747 12.5375 2.07747 13.1576 2.45999 13.5401C2.84248 13.9224 3.46261 13.9224 3.84513 13.5401C5.22999 12.155 6.61488 10.7701 8.00002 9.38504Z" fill="white"/>
</g>
</svg>
